<?xml version="1.0" standalone="no"?>
<!DOCTYPE svg PUBLIC "-//W3C//DTD SVG 20010904//EN"
 "http://www.w3.org/TR/2001/REC-SVG-20010904/DTD/svg10.dtd">
<svg version="1.0" xmlns="http://www.w3.org/2000/svg"
 width="234.000000pt" height="68.000000pt" viewBox="0 0 234.000000 68.000000"
 preserveAspectRatio="xMidYMid meet">
<metadata>
Created by potrace 1.16, written by Peter Selinger 2001-2019
</metadata>
<g transform="translate(0.000000,68.000000) scale(0.100000,-0.100000)"
fill="#000000" stroke="none">
<path d="M659 389 c-34 -12 -52 -51 -39 -84 5 -13 26 -35 47 -48 57 -36 68
-53 55 -82 -16 -35 -54 -33 -86 6 l-26 31 0 -26 c0 -30 25 -46 73 -46 47 0 80
28 80 68 0 38 -15 58 -64 82 -20 11 -39 27 -43 36 -9 23 1 51 21 58 17 7 63
-18 63 -34 0 -6 4 -10 9 -10 18 0 -2 48 -22 54 -28 7 -36 7 -68 -5z"/>
<path d="M902 383 c-5 -10 -26 -61 -47 -113 -21 -52 -44 -100 -51 -106 -23
-18 -16 -24 29 -24 38 1 40 2 24 15 -15 10 -17 21 -12 44 6 29 10 31 49 31 38
0 43 -3 54 -32 8 -21 9 -34 2 -36 -27 -9 -5 -22 37 -22 44 0 45 1 29 18 -9 10
-35 68 -57 128 -23 60 -43 111 -44 112 -2 2 -8 -5 -13 -15z"/>
<path d="M1504 374 c20 -19 23 -193 4 -212 -9 -9 7 -12 74 -12 69 0 87 3 92
16 11 29 6 39 -10 16 -12 -17 -25 -22 -60 -22 l-45 0 3 53 c3 44 6 52 24 55
12 2 29 -4 38 -13 15 -15 16 -13 15 22 -1 21 -3 30 -6 21 -3 -13 -15 -18 -39
-18 l-34 0 0 50 0 50 34 0 c25 0 39 -7 50 -22 l16 -22 0 27 0 27 -86 0 c-78 0
-84 -1 -70 -16z"/>
<path d="M2001 302 c-18 -48 -42 -102 -52 -119 l-18 -33 25 0 c15 0 23 4 19
10 -4 6 -4 24 0 40 6 28 10 30 50 30 38 0 44 -3 55 -29 6 -17 9 -35 5 -40 -4
-7 7 -11 31 -11 28 0 34 3 26 13 -6 6 -28 59 -50 117 -22 57 -44 106 -48 107
-5 2 -24 -36 -43 -85z"/>
</g>
</svg>
